<svg width="52" height="30" viewBox="0 0 52 30" fill="none" xmlns="http://www.w3.org/2000/svg">
<path fill-rule="evenodd" clip-rule="evenodd" d="M0.204534 1.53824C-0.256083 1.02005 0.111777 0.200882 0.805098 0.200882H44.974C48.8433 0.200882 51.98 3.3375 51.98 7.20673V22.8998C51.98 26.7689 48.8433 29.9056 44.974 29.9056H23.2784C22.2838 29.9056 21.3367 29.4803 20.6759 28.737L18.4197 26.1988C17.9591 25.6806 18.327 24.8615 19.0203 24.8615H44.974C46.0575 24.8615 46.9357 23.9832 46.9357 22.8998V7.20673C46.9357 6.12336 46.0575 5.2451 44.974 5.2451H5.06314C4.06856 5.2451 3.12147 4.81977 2.4607 4.07643L0.204534 1.53824Z" fill="#02A99B"/>
<path fill-rule="evenodd" clip-rule="evenodd" d="M19.3408 0L32.2585 14.0428C32.5892 14.4026 33.1563 14.4052 33.4905 14.0485L44.8578 1.91731L48.5385 5.3663L37.1715 17.4975C34.8316 19.9946 30.8627 19.9763 28.5459 17.4578L15.6284 3.41496L19.3408 0Z" fill="#02A99B"/>
<path fill-rule="evenodd" clip-rule="evenodd" d="M10.0249 14.4315C9.56111 13.914 9.92838 13.0917 10.6233 13.0917H18.6941C19.4337 13.0917 20.0333 13.6913 20.0333 14.4309V16.7966C20.0333 17.5363 19.4337 18.1359 18.6941 18.1359H14.3022C13.6933 18.1359 13.1131 17.8768 12.7066 17.4233L10.0249 14.4315Z" fill="#02A99B"/>
</svg>
